TITLE ""
FILE "2Q_t_0771-0787.mp3" MP3
  TRACK 01 AUDIO
    TITLE "2Q_t_0771-0787_01"
    INDEX 01 00:00:00
  TRACK 02 AUDIO
    TITLE "2Q_t_0771-0787_02"
    INDEX 01 00:00:12
  TRACK 03 AUDIO
    TITLE "2Q_t_0771-0787_03"
    INDEX 01 00:01:33
  TRACK 04 AUDIO
    TITLE "2Q_t_0771-0787_04"
    INDEX 01 00:02:03
  TRACK 05 AUDIO
    TITLE "2Q_t_0771-0787_05"
    INDEX 01 00:03:07
  TRACK 06 AUDIO
    TITLE "2Q_t_0771-0787_06"
    INDEX 01 00:03:56
  TRACK 07 AUDIO
    TITLE "2Q_t_0771-0787_07"
    INDEX 01 00:05:02
  TRACK 08 AUDIO
    TITLE "2Q_t_0771-0787_08"
    INDEX 01 00:05:47
  TRACK 09 AUDIO
    TITLE "2Q_t_0771-0787_09"
    INDEX 01 00:06:46
  TRACK 10 AUDIO
    TITLE "2Q_t_0771-0787_10"
    INDEX 01 00:07:20
  TRACK 11 AUDIO
    TITLE "2Q_t_0771-0787_11"
    INDEX 01 00:08:33
  TRACK 12 AUDIO
    TITLE "2Q_t_0771-0787_12"
    INDEX 01 00:09:01
  TRACK 13 AUDIO
    TITLE "2Q_t_0771-0787_13"
    INDEX 01 00:10:15
  TRACK 14 AUDIO
    TITLE "2Q_t_0771-0787_14"
    INDEX 01 00:10:62
  TRACK 15 AUDIO
    TITLE "2Q_t_0771-0787_15"
    INDEX 01 00:13:19
  TRACK 16 AUDIO
    TITLE "2Q_t_0771-0787_16"
    INDEX 01 00:13:66
  TRACK 17 AUDIO
    TITLE "2Q_t_0771-0787_17"
    INDEX 01 00:15:12
  TRACK 18 AUDIO
    TITLE "2Q_t_0771-0787_18"
    INDEX 01 00:15:61
  TRACK 19 AUDIO
    TITLE "2Q_t_0771-0787_19"
    INDEX 01 00:17:11
  TRACK 20 AUDIO
    TITLE "2Q_t_0771-0787_20"
    INDEX 01 00:17:54
  TRACK 21 AUDIO
    TITLE "2Q_t_0771-0787_21"
    INDEX 01 00:19:04
  TRACK 22 AUDIO
    TITLE "2Q_t_0771-0787_22"
    INDEX 01 00:19:51
  TRACK 23 AUDIO
    TITLE "2Q_t_0771-0787_23"
    INDEX 01 00:21:44
  TRACK 24 AUDIO
    TITLE "2Q_t_0771-0787_24"
    INDEX 01 00:22:12
  TRACK 25 AUDIO
    TITLE "2Q_t_0771-0787_25"
    INDEX 01 00:23:29
  TRACK 26 AUDIO
    TITLE "2Q_t_0771-0787_26"
    INDEX 01 00:24:01
  TRACK 27 AUDIO
    TITLE "2Q_t_0771-0787_27"
    INDEX 01 00:25:46
  TRACK 28 AUDIO
    TITLE "2Q_t_0771-0787_28"
    INDEX 01 00:26:18
  TRACK 29 AUDIO
    TITLE "2Q_t_0771-0787_29"
    INDEX 01 00:27:29
  TRACK 30 AUDIO
    TITLE "2Q_t_0771-0787_30"
    INDEX 01 00:28:01
  TRACK 31 AUDIO
    TITLE "2Q_t_0771-0787_31"
    INDEX 01 00:29:34
  TRACK 32 AUDIO
    TITLE "2Q_t_0771-0787_32"
    INDEX 01 00:30:04
  TRACK 33 AUDIO
    TITLE "2Q_t_0771-0787_33"
    INDEX 01 00:31:28
  TRACK 34 AUDIO
    TITLE "2Q_t_0771-0787_34"
    INDEX 01 00:32:10
  TRACK 35 AUDIO
    TITLE "2Q_t_0771-0787_35"
    INDEX 01 00:33:53
  TRACK 36 AUDIO
    TITLE "2Q_t_0771-0787_36"
    INDEX 01 00:34:23
  TRACK 37 AUDIO
    TITLE "2Q_t_0771-0787_37"
    INDEX 01 00:35:40
  TRACK 38 AUDIO
    TITLE "2Q_t_0771-0787_38"
    INDEX 01 00:36:12
  TRACK 39 AUDIO
    TITLE "2Q_t_0771-0787_39"
    INDEX 01 00:37:37
  TRACK 40 AUDIO
    TITLE "2Q_t_0771-0787_40"
    INDEX 01 00:38:07
  TRACK 41 AUDIO
    TITLE "2Q_t_0771-0787_41"
    INDEX 01 00:39:30
  TRACK 42 AUDIO
    TITLE "2Q_t_0771-0787_42"
    INDEX 01 00:40:00
  TRACK 43 AUDIO
    TITLE "2Q_t_0771-0787_43"
    INDEX 01 00:42:22
  TRACK 44 AUDIO
    TITLE "2Q_t_0771-0787_44"
    INDEX 01 00:42:67
  TRACK 45 AUDIO
    TITLE "2Q_t_0771-0787_45"
    INDEX 01 00:44:13
  TRACK 46 AUDIO
    TITLE "2Q_t_0771-0787_46"
    INDEX 01 00:44:64
  TRACK 47 AUDIO
    TITLE "2Q_t_0771-0787_47"
    INDEX 01 00:46:30
  TRACK 48 AUDIO
    TITLE "2Q_t_0771-0787_48"
    INDEX 01 00:47:02
  TRACK 49 AUDIO
    TITLE "2Q_t_0771-0787_49"
    INDEX 01 00:48:31
  TRACK 50 AUDIO
    TITLE "2Q_t_0771-0787_50"
    INDEX 01 00:49:03
  TRACK 51 AUDIO
    TITLE "2Q_t_0771-0787_51"
    INDEX 01 00:51:29
  TRACK 52 AUDIO
    TITLE "2Q_t_0771-0787_52"
    INDEX 01 00:51:72
  TRACK 53 AUDIO
    TITLE "2Q_t_0771-0787_53"
    INDEX 01 00:53:22
  TRACK 54 AUDIO
    TITLE "2Q_t_0771-0787_54"
    INDEX 01 00:53:67
  TRACK 55 AUDIO
    TITLE "2Q_t_0771-0787_55"
    INDEX 01 00:55:21
  TRACK 56 AUDIO
    TITLE "2Q_t_0771-0787_56"
    INDEX 01 00:55:64
  TRACK 57 AUDIO
    TITLE "2Q_t_0771-0787_57"
    INDEX 01 00:57:04
  TRACK 58 AUDIO
    TITLE "2Q_t_0771-0787_58"
    INDEX 01 00:57:51
  TRACK 59 AUDIO
    TITLE "2Q_t_0771-0787_59"
    INDEX 01 01:00:09
  TRACK 60 AUDIO
    TITLE "2Q_t_0771-0787_60"
    INDEX 01 01:00:52
  TRACK 61 AUDIO
    TITLE "2Q_t_0771-0787_61"
    INDEX 01 01:01:69
  TRACK 62 AUDIO
    TITLE "2Q_t_0771-0787_62"
    INDEX 01 01:02:39
  TRACK 63 AUDIO
    TITLE "2Q_t_0771-0787_63"
    INDEX 01 01:04:10
  TRACK 64 AUDIO
    TITLE "2Q_t_0771-0787_64"
    INDEX 01 01:04:55
  TRACK 65 AUDIO
    TITLE "2Q_t_0771-0787_65"
    INDEX 01 01:05:59
  TRACK 66 AUDIO
    TITLE "2Q_t_0771-0787_66"
    INDEX 01 01:06:35
  TRACK 67 AUDIO
    TITLE "2Q_t_0771-0787_67"
    INDEX 01 01:07:67
  TRACK 68 AUDIO
    TITLE "2Q_t_0771-0787_68"
    INDEX 01 01:08:37
  TRACK 69 AUDIO
    TITLE "2Q_t_0771-0787_69"
    INDEX 01 01:09:68
  TRACK 70 AUDIO
    TITLE "2Q_t_0771-0787_70"
    INDEX 01 01:10:42
  TRACK 71 AUDIO
    TITLE "2Q_t_0771-0787_71"
    INDEX 01 01:12:06
